<?xml version="1.0" encoding="UTF-8"?>
<svg width="16" height="16" viewBox="0 0 16 16" fill="none" xmlns="http://www.w3.org/2000/svg">
  <!-- Git branch -->
  <path d="M5 3.5C5 4.32843 4.32843 5 3.5 5C2.67157 5 2 4.32843 2 3.5C2 2.67157 2.67157 2 3.5 2C4.32843 2 5 2.67157 5 3.5Z" stroke="#0078D4" stroke-width="1.5"/>
  <path d="M5 12.5C5 13.3284 4.32843 14 3.5 14C2.67157 14 2 13.3284 2 12.5C2 11.6716 2.67157 11 3.5 11C4.32843 11 5 11.6716 5 12.5Z" stroke="#0078D4" stroke-width="1.5"/>
  <path d="M12 7.5C12 8.32843 11.3284 9 10.5 9C9.67157 9 9 8.32843 9 7.5C9 6.67157 9.67157 6 10.5 6C11.3284 6 12 6.67157 12 7.5Z" stroke="#0078D4" stroke-width="1.5"/>
  <path d="M3.5 5V11" stroke="#0078D4" stroke-width="1.5"/>
  <path d="M3.5 5C3.5 5 3.5 7.5 10.5 7.5" stroke="#0078D4" stroke-width="1.5"/>
  
  <!-- Message/AI indicator -->
  <path d="M13.5 3.5L14.5 2.5" stroke="#0066B8" stroke-width="1.5" stroke-linecap="round"/>
  <path d="M13.5 2.5L14.5 3.5" stroke="#0066B8" stroke-width="1.5" stroke-linecap="round"/>
  <path d="M14 11.5C14 12.8807 12.8807 14 11.5 14C10.1193 14 9 12.8807 9 11.5C9 10.1193 10.1193 9 11.5 9C12.8807 9 14 10.1193 14 11.5Z" stroke="#0066B8" stroke-width="1.5"/>
  <path d="M11.5 10.5V12.5" stroke="#0066B8" stroke-width="1.5" stroke-linecap="round"/>
  <path d="M11.5 13.25V13.5" stroke="#0066B8" stroke-width="1.5" stroke-linecap="round"/>
</svg>
